# xmcd
#
# Track frame offsets: 
#        150
#        14440
#        33917
#        52520
#        74490
#        96827
#        117730
#        142450
#        153412
#        173945
#        185705
#        213030
#        237045
#        251030
#
# Disc length: 3603 seconds
#
# Revision: 4
# Processed by: cddbd v1.5.2PL0 Copyright (c) Steve Scherf et al.
# Submitted via: ExactAudioCopy v0.99pb5
#
DISCID=c80e110e
DTITLE=Наталья Маркова и гр. Двуречье - Светозар
DYEAR=1900
DGENRE=Country
TTITLE0=Вслед за тобой
TTITLE1=Ветер в облаках
TTITLE2=Стожень
TTITLE3=Где искали меня
TTITLE4=Что обещано
TTITLE5=С ветром проститься
TTITLE6=Ты где?
TTITLE7=Изгиб сечали
TTITLE8=О чем ты плачешь?
TTITLE9=Скошены травы
TTITLE10=Ответ Улы
TTITLE11=Светозар
TTITLE12=Ты обречен
TTITLE13=Иверни счастья
EXTD=
EXTT0=
EXTT1=
EXTT2=
EXTT3=
EXTT4=
EXTT5=
EXTT6=
EXTT7=
EXTT8=
EXTT9=
EXTT10=
EXTT11=
EXTT12=
EXTT13=
PLAYORDER=
